# xmcd CD database file
#
# Track frame offsets:
#	150
#	32847
#	64597
#	96267
#	146857
#	165215
#	209187
#	244682
#	272810
#
# Disc length: 3890 seconds
#
# Revision: 0
# Processed by: cddbd v1.4PL0 Copyright (c) Steve Scherf et al.
# Submitted via: CDex 1.50
#
DISCID=840f3009
DTITLE=Junior Mance Trio and Eric Alexander - Groovin' Blues
DYEAR=2002
DGENRE=Jazz
TTITLE0=Night Train
TTITLE1=Blueberry Hill
TTITLE2=Blues In The Closet
TTITLE3=Lonely Avenue
TTITLE4=Blue 'N' Boogie
TTITLE5=I Got My Mojo Workin
TTITLE6=All Blues
TTITLE7=Bag's Groove
TTITLE8=America The Beautiful
EXTD=YEAR: 2002
EXTT0=
EXTT1=
EXTT2=
EXTT3=
EXTT4=
EXTT5=
EXTT6=
EXTT7=
EXTT8=
PLAYORDER=
